<svg width="15" height="15" viewBox="0 0 15 15" fill="none" xmlns="http://www.w3.org/2000/svg">
<path d="M4.97222 7.34766H7.5V3.73655M1 7.34766C1 8.20125 1.16813 9.04648 1.49478 9.8351C1.82144 10.6237 2.30022 11.3403 2.90381 11.9438C3.50739 12.5474 4.22394 13.0262 5.01256 13.3529C5.80117 13.6795 6.64641 13.8477 7.5 13.8477C8.35359 13.8477 9.19883 13.6795 9.98744 13.3529C10.7761 13.0262 11.4926 12.5474 12.0962 11.9438C12.6998 11.3403 13.1786 10.6237 13.5052 9.8351C13.8319 9.04648 14 8.20125 14 7.34766C14 6.49406 13.8319 5.64883 13.5052 4.86021C13.1786 4.0716 12.6998 3.35504 12.0962 2.75146C11.4926 2.14788 10.7761 1.66909 9.98744 1.34244C9.19883 1.01578 8.35359 0.847656 7.5 0.847656C6.64641 0.847656 5.80117 1.01578 5.01256 1.34244C4.22394 1.66909 3.50739 2.14788 2.90381 2.75146C2.30022 3.35504 1.82144 4.0716 1.49478 4.86021C1.16813 5.64883 1 6.49406 1 7.34766Z" stroke="black" stroke-linecap="round" stroke-linejoin="round"/>
</svg>
