<svg width="10" height="9" viewBox="0 0 10 9" fill="none" xmlns="http://www.w3.org/2000/svg">
<path d="M5 0C2.23828 0 0 1.87031 0 4.17857C0 5.175 0.417969 6.08705 1.11328 6.80424C0.869141 7.81674 0.0527344 8.71875 0.0429688 8.72879C0 8.775 -0.0117188 8.8433 0.0136719 8.90357C0.0390625 8.96384 0.09375 9 0.15625 9C1.45117 9 2.42188 8.36116 2.90234 7.96741C3.54102 8.21451 4.25 8.35714 5 8.35714C7.76172 8.35714 10 6.48683 10 4.17857C10 1.87031 7.76172 0 5 0ZM2.5 4.82143C2.1543 4.82143 1.875 4.53415 1.875 4.17857C1.875 3.82299 2.1543 3.53571 2.5 3.53571C2.8457 3.53571 3.125 3.82299 3.125 4.17857C3.125 4.53415 2.8457 4.82143 2.5 4.82143ZM5 4.82143C4.6543 4.82143 4.375 4.53415 4.375 4.17857C4.375 3.82299 4.6543 3.53571 5 3.53571C5.3457 3.53571 5.625 3.82299 5.625 4.17857C5.625 4.53415 5.3457 4.82143 5 4.82143ZM7.5 4.82143C7.1543 4.82143 6.875 4.53415 6.875 4.17857C6.875 3.82299 7.1543 3.53571 7.5 3.53571C7.8457 3.53571 8.125 3.82299 8.125 4.17857C8.125 4.53415 7.8457 4.82143 7.5 4.82143Z" fill="#A5A5A5"/>
</svg>
