<svg width="12" height="10" viewBox="0 0 12 10" fill="none" xmlns="http://www.w3.org/2000/svg">
<path d="M1 2.14286C1 1.83975 1.11706 1.54906 1.32544 1.33474C1.53381 1.12041 1.81643 1 2.11111 1H9.88889C10.1836 1 10.4662 1.12041 10.6746 1.33474C10.8829 1.54906 11 1.83975 11 2.14286M1 2.14286V7.85714C1 8.16025 1.11706 8.45094 1.32544 8.66527C1.53381 8.87959 1.81643 9 2.11111 9H9.88889C10.1836 9 10.4662 8.87959 10.6746 8.66527C10.8829 8.45094 11 8.16025 11 7.85714V2.14286M1 2.14286L6 5.57143L11 2.14286" stroke="#2162AF" stroke-width="1.5" stroke-linecap="round" stroke-linejoin="round"/>
</svg>
