<svg width="17" height="17" viewBox="0 0 17 17" fill="none" xmlns="http://www.w3.org/2000/svg">
<path d="M5.16667 5.16435H11.8333M5.16667 8.49583H10.1667M10.1667 12.6602H9.33333L5.16667 15.1588V12.6602H3.5C2.83696 12.6602 2.20107 12.3969 1.73223 11.9284C1.26339 11.4598 1 10.8242 1 10.1616V3.49861C1 2.83594 1.26339 2.20041 1.73223 1.73183C2.20107 1.26325 2.83696 1 3.5 1H13.5C14.163 1 14.7989 1.26325 15.2678 1.73183C15.7366 2.20041 16 2.83594 16 3.49861V7.24653M14.3333 15.9917V16M14.3333 13.4929C14.7069 13.4917 15.0693 13.3653 15.3625 13.1339C15.6557 12.9025 15.8627 12.5794 15.9505 12.2165C16.0382 11.8536 16.0016 11.4717 15.8465 11.1321C15.6914 10.7924 15.4268 10.5145 15.095 10.3429C14.7635 10.1732 14.3843 10.1206 14.019 10.1936C13.6538 10.2667 13.324 10.4611 13.0833 10.7452" stroke="black" stroke-linecap="round" stroke-linejoin="round"/>
</svg>
