<svg width="9" height="9" viewBox="0 0 9 9" fill="none" xmlns="http://www.w3.org/2000/svg">
<path d="M1.82812 3.9375H0.421875C0.188877 3.9375 0 4.12638 0 4.35938V8.57812C0 8.81112 0.188877 9 0.421875 9H1.82812C2.06112 9 2.25 8.81112 2.25 8.57812V4.35938C2.25 4.12638 2.06112 3.9375 1.82812 3.9375ZM1.125 8.29688C0.892002 8.29688 0.703125 8.108 0.703125 7.875C0.703125 7.642 0.892002 7.45312 1.125 7.45312C1.358 7.45312 1.54688 7.642 1.54688 7.875C1.54688 8.108 1.358 8.29688 1.125 8.29688ZM6.75 1.43177C6.75 2.17737 6.2935 2.59559 6.16505 3.09375H7.95315C8.54021 3.09375 8.99724 3.58147 8.99998 4.115C9.00146 4.43032 8.86734 4.76977 8.65828 4.97979L8.65635 4.98173C8.82925 5.39195 8.80114 5.96675 8.49273 6.37864C8.64533 6.83383 8.49152 7.39297 8.20477 7.69273C8.28032 8.00207 8.24421 8.26534 8.09669 8.47728C7.73793 8.99274 6.84872 9 6.09678 9L6.04677 8.99998C5.19797 8.99968 4.5033 8.69064 3.94513 8.44232C3.66463 8.31753 3.29788 8.16305 3.01962 8.15794C2.90466 8.15583 2.8125 8.06201 2.8125 7.94703V4.18936C2.8125 4.13311 2.83504 4.07913 2.87504 4.03958C3.57138 3.3515 3.87081 2.62301 4.44155 2.0513C4.70178 1.79058 4.79642 1.39676 4.88791 1.01591C4.96608 0.690697 5.1296 0 5.48438 0C5.90625 0 6.75 0.140625 6.75 1.43177Z" fill="#2162AF"/>
</svg>
