<svg width="17" height="19" viewBox="0 0 17 19" fill="none" xmlns="http://www.w3.org/2000/svg">
<path d="M4.21331 8.55556V4.77778C4.21331 3.77585 4.66484 2.81496 5.46857 2.10649C6.27229 1.39801 7.36238 1 8.49902 1C9.63567 1 10.7258 1.39801 11.5295 2.10649C12.3332 2.81496 12.7847 3.77585 12.7847 4.77778V8.55556M0.999023 10.4444C0.999023 9.94348 1.22479 9.46303 1.62665 9.1088C2.02852 8.75456 2.57356 8.55556 3.14188 8.55556H13.8562C14.4245 8.55556 14.9695 8.75456 15.3714 9.1088C15.7733 9.46303 15.999 9.94348 15.999 10.4444V16.1111C15.999 16.6121 15.7733 17.0925 15.3714 17.4468C14.9695 17.801 14.4245 18 13.8562 18H3.14188C2.57356 18 2.02852 17.801 1.62665 17.4468C1.22479 17.0925 0.999023 16.6121 0.999023 16.1111V10.4444ZM7.42759 13.2778C7.42759 13.5283 7.54048 13.7685 7.74141 13.9456C7.94234 14.1227 8.21486 14.2222 8.49902 14.2222C8.78318 14.2222 9.05571 14.1227 9.25664 13.9456C9.45757 13.7685 9.57045 13.5283 9.57045 13.2778C9.57045 13.0273 9.45757 12.7871 9.25664 12.61C9.05571 12.4328 8.78318 12.3333 8.49902 12.3333C8.21486 12.3333 7.94234 12.4328 7.74141 12.61C7.54048 12.7871 7.42759 13.0273 7.42759 13.2778Z" stroke="black" stroke-linecap="round" stroke-linejoin="round"/>
</svg>
