<svg width="18" height="18" viewBox="0 0 18 18" fill="none" xmlns="http://www.w3.org/2000/svg">
<path d="M10.7768 5.00391V3.00391C10.7768 2.47347 10.5895 1.96477 10.2561 1.58969C9.9227 1.21462 9.47052 1.00391 8.99902 1.00391H2.7768C2.30531 1.00391 1.85312 1.21462 1.51972 1.58969C1.18632 1.96477 0.999023 2.47347 0.999023 3.00391V15.0039C0.999023 15.5343 1.18632 16.043 1.51972 16.4181C1.85312 16.7932 2.30531 17.0039 2.7768 17.0039H8.99902C9.47052 17.0039 9.9227 16.7932 10.2561 16.4181C10.5895 16.043 10.7768 15.5343 10.7768 15.0039V13.0039M6.33236 9.00391H16.999M16.999 9.00391L14.3324 6.00391M16.999 9.00391L14.3324 12.0039" stroke="black" stroke-linecap="round" stroke-linejoin="round"/>
</svg>
