<svg width="19" height="15" viewBox="0 0 19 15" fill="none" xmlns="http://www.w3.org/2000/svg">
<path d="M14.39 4.2357C15.0972 4.2357 15.7755 4.49288 16.2756 4.95067C16.7757 5.40846 17.0566 6.02936 17.0566 6.67677C17.0566 7.32419 16.7757 7.94508 16.2756 8.40287C15.7755 8.86066 15.0972 9.11785 14.39 9.11785M7.27886 4.2357V13.1863C7.27886 13.4021 7.18521 13.6091 7.01851 13.7617C6.85181 13.9143 6.62572 14 6.38997 14H5.50109C5.26534 14 5.03924 13.9143 4.87255 13.7617C4.70585 13.6091 4.6122 13.4021 4.6122 13.1863V9.11785M9.05664 4.23724L13.078 1.16962C13.1948 1.08053 13.337 1.02377 13.4878 1.006C13.6386 0.988219 13.7919 1.01016 13.9296 1.06926C14.0673 1.12835 14.1837 1.22214 14.2652 1.33965C14.3468 1.45715 14.3901 1.59349 14.39 1.7327V11.6239C14.3901 11.7631 14.3468 11.8995 14.2652 12.017C14.1837 12.1345 14.0673 12.2283 13.9296 12.2874C13.7919 12.3465 13.6386 12.3684 13.4878 12.3506C13.337 12.3329 13.1948 12.2761 13.078 12.187L9.05664 9.11939H1.94553C1.70978 9.11939 1.48369 9.03367 1.31699 8.88107C1.15029 8.72847 1.05664 8.52151 1.05664 8.3057V5.05094C1.05664 4.83513 1.15029 4.62817 1.31699 4.47557C1.48369 4.32297 1.70978 4.23724 1.94553 4.23724H9.05664Z" stroke="#2162AF" stroke-width="2" stroke-linecap="round" stroke-linejoin="round"/>
</svg>
