<svg width="11" height="11" viewBox="0 0 11 11" fill="none" xmlns="http://www.w3.org/2000/svg">
<path d="M7 3C7.26522 3 7.51957 3.10536 7.70711 3.29289C7.89464 3.48043 8 3.73478 8 4M7 1C7.79565 1 8.55871 1.31607 9.12132 1.87868C9.68393 2.44129 10 3.20435 10 4M2 1.5H4L5 4L3.75 4.75C4.28548 5.83577 5.16423 6.71452 6.25 7.25L7 6L9.5 7V9C9.5 9.26522 9.39464 9.51957 9.20711 9.70711C9.01957 9.89464 8.76522 10 8.5 10C6.54963 9.88148 4.71008 9.05325 3.32841 7.67159C1.94675 6.28992 1.11852 4.45037 1 2.5C1 2.23478 1.10536 1.98043 1.29289 1.79289C1.48043 1.60536 1.73478 1.5 2 1.5Z" stroke="#2162AF" stroke-width="1.5" stroke-linecap="round" stroke-linejoin="round"/>
</svg>
