<svg width="15" height="15" viewBox="0 0 15 15" fill="none" xmlns="http://www.w3.org/2000/svg">
<path d="M2.625 7.5C2.19402 7.5 1.7807 7.32879 1.47595 7.02405C1.1712 6.7193 1 6.30598 1 5.875C1 5.44402 1.1712 5.0307 1.47595 4.72595C1.7807 4.42121 2.19402 4.25 2.625 4.25M2.625 7.5C3.05598 7.5 3.4693 7.32879 3.77405 7.02405C4.0788 6.7193 4.25 6.30598 4.25 5.875C4.25 5.44402 4.0788 5.0307 3.77405 4.72595C3.4693 4.42121 3.05598 4.25 2.625 4.25M2.625 7.5V14M2.625 4.25V1M7.5 12.375C7.06902 12.375 6.6557 12.2038 6.35095 11.899C6.04621 11.5943 5.875 11.181 5.875 10.75C5.875 10.319 6.04621 9.9057 6.35095 9.60095C6.6557 9.29621 7.06902 9.125 7.5 9.125M7.5 12.375C7.93098 12.375 8.3443 12.2038 8.64905 11.899C8.95379 11.5943 9.125 11.181 9.125 10.75C9.125 10.319 8.95379 9.9057 8.64905 9.60095C8.3443 9.29621 7.93098 9.125 7.5 9.125M7.5 12.375V14M7.5 9.125V1M12.375 5.0625C11.944 5.0625 11.5307 4.89129 11.226 4.58655C10.9212 4.2818 10.75 3.86848 10.75 3.4375C10.75 3.00652 10.9212 2.5932 11.226 2.28845C11.5307 1.9837 11.944 1.8125 12.375 1.8125M12.375 5.0625C12.806 5.0625 13.2193 4.89129 13.524 4.58655C13.8288 4.2818 14 3.86848 14 3.4375C14 3.00652 13.8288 2.5932 13.524 2.28845C13.2193 1.9837 12.806 1.8125 12.375 1.8125M12.375 5.0625V14M12.375 1.8125V1" stroke="#F9F9F9" stroke-width="2" stroke-linecap="round" stroke-linejoin="round"/>
</svg>
