<svg width="16" height="16" viewBox="0 0 16 16" fill="none" xmlns="http://www.w3.org/2000/svg">
<path d="M3.33333 14.1088V14.0699C3.33333 13.2448 3.66111 12.4534 4.24456 11.87C4.828 11.2865 5.61933 10.9588 6.44444 10.9588H9.55556C10.3807 10.9588 11.172 11.2865 11.7554 11.87C12.3389 12.4534 12.6667 13.2448 12.6667 14.0699V14.1088M8 8.62543C8.61884 8.62543 9.21233 8.3796 9.64992 7.94202C10.0875 7.50443 10.3333 6.91094 10.3333 6.2921C10.3333 5.67326 10.0875 5.07977 9.64992 4.64218C9.21233 4.2046 8.61884 3.95877 8 3.95877C7.38116 3.95877 6.78767 4.2046 6.35008 4.64218C5.9125 5.07977 5.66667 5.67326 5.66667 6.2921C5.66667 6.91094 5.9125 7.50443 6.35008 7.94202C6.78767 8.3796 7.38116 8.62543 8 8.62543ZM8 0.847656C13.6 0.847656 15 2.24766 15 7.84766C15 13.4477 13.6 14.8477 8 14.8477C2.4 14.8477 1 13.4477 1 7.84766C1 2.24766 2.4 0.847656 8 0.847656Z" stroke="black" stroke-linecap="round" stroke-linejoin="round"/>
</svg>
